<svg xmlns="http://www.w3.org/2000/svg" shape-rendering="geometricPrecision" text-rendering="geometricPrecision" image-rendering="optimizeQuality" fill-rule="evenodd" clip-rule="evenodd" viewBox="0 0 512 436.18"><path d="M213.74 0h84.52c26.29 0 47.81 21.53 47.81 47.8v37.98h122.19c12.02 0 22.98 4.93 30.9 12.85 7.91 7.91 12.84 18.86 12.84 30.89v262.92c0 12.03-4.93 22.99-12.84 30.9-7.92 7.92-18.88 12.84-30.9 12.84H43.74c-12.04 0-22.99-4.92-30.9-12.84C4.93 415.43 0 404.47 0 392.44V129.52c0-12.03 4.93-22.98 12.84-30.89 7.91-7.92 18.86-12.85 30.9-12.85h122.19V47.8c0-26.29 21.52-47.8 47.81-47.8zm168.04 419.56V102.41H130.22v317.15h251.56zm27.71-317.15v317.15h58.77c7.44 0 14.23-3.06 19.14-7.97s7.97-11.7 7.97-19.15V129.52c0-7.44-3.06-14.23-7.97-19.14s-11.7-7.97-19.14-7.97h-58.77zM102.51 419.56V102.41H43.74c-7.45 0-14.24 3.06-19.14 7.97-4.91 4.91-7.98 11.7-7.98 19.14v262.92c0 7.45 3.07 14.24 7.98 19.15 4.9 4.91 11.69 7.97 19.14 7.97h58.77zm213.1-333.78V47.69c0-9.21-7.56-16.75-16.75-16.75h-85.72c-9.2 0-16.75 7.56-16.75 16.75v38.09h119.22z"/></svg>